# xmcd CD database file
#
# Track frame offsets:
#	150
#	14608
#	29137
#	43382
#	56392
#	71306
#	84508
#	97417
#	111330
#	123579
#	136051
#	148539
#	159264
#	172608
#	183678
#	197391
#	209987
#	224980
#	237191
#	247890
#
# Disc length: 3457 seconds
#
# Revision: 0
# Processed by: cddbd v1.5.1PL0 Copyright (c) Steve Scherf et al.
# Submitted via: CDex 1.51
#
DISCID=300d7f14
DTITLE=Dizzy Gillespie and his Orch - 1949-1950
DYEAR=1949
DGENRE=Jazz
TTITLE0=Say When
TTITLE1=Tally-Ho
TTITLE2=You Stole My Wife You Horsethief
TTITLE3=I Can't Remember
TTITLE4=Coast To Coast
TTITLE5=Carambola
TTITLE6=Oo-La-La
TTITLE7=Honeysuckle Rose
TTITLE8=She's Gone Again
TTITLE9=Nice Work If You Can Get It
TTITLE10=Thinking Of You
TTITLE11=Too Much Weight
TTITLE12=Swing Low, Sweet Chariot
TTITLE13=Lullaby Of The Leaves
TTITLE14=Million Dollar Baby
TTITLE15=What Is There To Say
TTITLE16=Alone Together
TTITLE17=These Are The Things I Love
TTITLE18=On The Alamo
TTITLE19=Interlude In "C"
EXTD=YEAR: 1949
EXTT0=
EXTT1=
EXTT2=
EXTT3=
EXTT4=
EXTT5=
EXTT6=
EXTT7=
EXTT8=
EXTT9=
EXTT10=
EXTT11=
EXTT12=
EXTT13=
EXTT14=
EXTT15=
EXTT16=
EXTT17=
EXTT18=
EXTT19=
PLAYORDER=
